<mxfile host="drawio-plugin" agent="Mozilla/5.0 (Windows NT 10.0; Win64; x64) AppleWebKit/537.36 (KHTML, like Gecko) Chrome/122.0.0.0 Safari/537.36" modified="2025-09-27T07:59:22.363Z" etag="bFdx5iu9_SmUF36-XnZB" version="22.1.22" type="embed">
  <diagram name="Страница — 1" id="Z7SLVL3Lq5atwt0gQljg">
    <mxGraphModel dx="964" dy="427" grid="1" gridSize="10" guides="1" tooltips="1" connect="1" arrows="1" fold="1" page="1" pageScale="1" pageWidth="1169" pageHeight="827" math="0" shadow="0">
      <root>
        <mxCell id="0" />
        <mxCell id="1" parent="0" />
        <mxCell id="rMBZ1nUeqfYZl0zxZW-h-42" value="Director&lt;div&gt;buildPassengerTransoptation(TransportationBuilder builder);&lt;/div&gt;&lt;div&gt;buildCargoTransportation(TransportationBuilder builder);&lt;/div&gt;" style="rounded=1;whiteSpace=wrap;html=1;align=center;" parent="1" vertex="1">
          <mxGeometry x="80" y="160" width="330" height="180" as="geometry" />
        </mxCell>
        <mxCell id="rMBZ1nUeqfYZl0zxZW-h-43" value="&quot;Interface&quot;&lt;div&gt;Builder&lt;/div&gt;&lt;div&gt;(TransportationBuilder)&lt;/div&gt;&lt;div&gt;&lt;br&gt;&lt;/div&gt;&lt;div&gt;setRoute(String rout);&lt;/div&gt;&lt;div&gt;setVehicle(String vehicle);&lt;/div&gt;&lt;div&gt;setPrice(int price);&lt;/div&gt;" style="rounded=1;whiteSpace=wrap;html=1;" parent="1" vertex="1">
          <mxGeometry x="680" y="160" width="200" height="120" as="geometry" />
        </mxCell>
        <mxCell id="rMBZ1nUeqfYZl0zxZW-h-44" value="ConcreteBuilder&lt;div&gt;(PassengerTransportatioBuilder)&lt;/div&gt;&lt;div&gt;&lt;br&gt;&lt;/div&gt;&lt;div&gt;&lt;div&gt;setRoute(String rout);&lt;/div&gt;&lt;div&gt;setVehicle(String vehicle);&lt;/div&gt;&lt;div&gt;setPrice(int price);&lt;/div&gt;&lt;/div&gt;&lt;div&gt;PassengerTransportatio getTransportatio();&lt;/div&gt;" style="rounded=1;whiteSpace=wrap;html=1;" parent="1" vertex="1">
          <mxGeometry x="560" y="360" width="200" height="160" as="geometry" />
        </mxCell>
        <mxCell id="rMBZ1nUeqfYZl0zxZW-h-45" value="" style="endArrow=block;dashed=1;endFill=0;endSize=12;html=1;rounded=0;entryX=0.25;entryY=1;entryDx=0;entryDy=0;exitX=0.5;exitY=0;exitDx=0;exitDy=0;" parent="1" source="rMBZ1nUeqfYZl0zxZW-h-44" target="rMBZ1nUeqfYZl0zxZW-h-43" edge="1">
          <mxGeometry width="160" relative="1" as="geometry">
            <mxPoint x="560" y="380" as="sourcePoint" />
            <mxPoint x="610" y="330" as="targetPoint" />
          </mxGeometry>
        </mxCell>
        <mxCell id="rMBZ1nUeqfYZl0zxZW-h-46" value="ConcreteBuilder&lt;div&gt;(CargoTransportatioBuilder)&lt;/div&gt;&lt;div&gt;&lt;br&gt;&lt;/div&gt;&lt;div&gt;&lt;div&gt;setRoute(String rout);&lt;/div&gt;&lt;div&gt;setVehicle(String vehicle);&lt;/div&gt;&lt;div&gt;setPrice(int price);&lt;/div&gt;&lt;/div&gt;&lt;div&gt;CargoTransportatio getTransportatio();&lt;/div&gt;" style="rounded=1;whiteSpace=wrap;html=1;" parent="1" vertex="1">
          <mxGeometry x="800" y="360" width="200" height="160" as="geometry" />
        </mxCell>
        <mxCell id="rMBZ1nUeqfYZl0zxZW-h-47" value="" style="endArrow=block;dashed=1;endFill=0;endSize=12;html=1;rounded=0;entryX=0.75;entryY=1;entryDx=0;entryDy=0;exitX=0.5;exitY=0;exitDx=0;exitDy=0;" parent="1" source="rMBZ1nUeqfYZl0zxZW-h-46" target="rMBZ1nUeqfYZl0zxZW-h-43" edge="1">
          <mxGeometry width="160" relative="1" as="geometry">
            <mxPoint x="860" y="450" as="sourcePoint" />
            <mxPoint x="953" y="340" as="targetPoint" />
          </mxGeometry>
        </mxCell>
        <mxCell id="rMBZ1nUeqfYZl0zxZW-h-48" value="Product&lt;div&gt;(PassengerTransportation)&lt;/div&gt;" style="rounded=1;whiteSpace=wrap;html=1;" parent="1" vertex="1">
          <mxGeometry x="560" y="600" width="200" height="60" as="geometry" />
        </mxCell>
        <mxCell id="rMBZ1nUeqfYZl0zxZW-h-49" value="" style="endArrow=open;endFill=1;endSize=12;html=1;rounded=0;exitX=0.5;exitY=1;exitDx=0;exitDy=0;entryX=0.5;entryY=0;entryDx=0;entryDy=0;" parent="1" source="rMBZ1nUeqfYZl0zxZW-h-44" target="rMBZ1nUeqfYZl0zxZW-h-48" edge="1">
          <mxGeometry width="160" relative="1" as="geometry">
            <mxPoint x="450" y="440" as="sourcePoint" />
            <mxPoint x="610" y="440" as="targetPoint" />
          </mxGeometry>
        </mxCell>
        <mxCell id="rMBZ1nUeqfYZl0zxZW-h-50" value="Product&lt;div&gt;(CargoTransportation)&lt;/div&gt;" style="rounded=1;whiteSpace=wrap;html=1;" parent="1" vertex="1">
          <mxGeometry x="800" y="600" width="200" height="60" as="geometry" />
        </mxCell>
        <mxCell id="rMBZ1nUeqfYZl0zxZW-h-51" value="" style="endArrow=open;endFill=1;endSize=12;html=1;rounded=0;exitX=0.5;exitY=1;exitDx=0;exitDy=0;entryX=0.5;entryY=0;entryDx=0;entryDy=0;" parent="1" source="rMBZ1nUeqfYZl0zxZW-h-46" target="rMBZ1nUeqfYZl0zxZW-h-50" edge="1">
          <mxGeometry width="160" relative="1" as="geometry">
            <mxPoint x="850" y="580" as="sourcePoint" />
            <mxPoint x="850" y="620" as="targetPoint" />
          </mxGeometry>
        </mxCell>
        <mxCell id="rMBZ1nUeqfYZl0zxZW-h-54" value="Client" style="rounded=1;whiteSpace=wrap;html=1;" parent="1" vertex="1">
          <mxGeometry x="440" y="40" width="120" height="60" as="geometry" />
        </mxCell>
        <mxCell id="rMBZ1nUeqfYZl0zxZW-h-56" value="" style="endArrow=open;endFill=1;endSize=12;html=1;rounded=0;exitX=0;exitY=0.5;exitDx=0;exitDy=0;entryX=0.5;entryY=0;entryDx=0;entryDy=0;" parent="1" source="rMBZ1nUeqfYZl0zxZW-h-54" target="rMBZ1nUeqfYZl0zxZW-h-42" edge="1">
          <mxGeometry width="160" relative="1" as="geometry">
            <mxPoint x="350" y="100" as="sourcePoint" />
            <mxPoint x="350" y="180" as="targetPoint" />
            <Array as="points">
              <mxPoint x="245" y="70" />
            </Array>
          </mxGeometry>
        </mxCell>
        <mxCell id="rMBZ1nUeqfYZl0zxZW-h-59" value="" style="endArrow=open;endFill=1;endSize=12;html=1;rounded=0;exitX=1;exitY=0.5;exitDx=0;exitDy=0;entryX=0;entryY=0.75;entryDx=0;entryDy=0;" parent="1" source="rMBZ1nUeqfYZl0zxZW-h-42" target="rMBZ1nUeqfYZl0zxZW-h-43" edge="1">
          <mxGeometry width="160" relative="1" as="geometry">
            <mxPoint x="500" y="340" as="sourcePoint" />
            <mxPoint x="660" y="340" as="targetPoint" />
          </mxGeometry>
        </mxCell>
        <mxCell id="3" value="Use" style="endArrow=open;endSize=12;dashed=1;html=1;rounded=0;exitX=1;exitY=0.5;exitDx=0;exitDy=0;entryX=0.75;entryY=0;entryDx=0;entryDy=0;" parent="1" source="rMBZ1nUeqfYZl0zxZW-h-54" target="rMBZ1nUeqfYZl0zxZW-h-46" edge="1">
          <mxGeometry width="160" relative="1" as="geometry">
            <mxPoint x="390" y="280" as="sourcePoint" />
            <mxPoint x="550" y="280" as="targetPoint" />
            <Array as="points">
              <mxPoint x="950" y="70" />
            </Array>
          </mxGeometry>
        </mxCell>
      </root>
    </mxGraphModel>
  </diagram>
</mxfile>
